<?xml version="1.0" standalone="no"?><!DOCTYPE svg PUBLIC "-//W3C//DTD SVG 1.1//EN" "http://www.w3.org/Graphics/SVG/1.1/DTD/svg11.dtd"><svg t="1722351520036" class="icon" viewBox="0 0 1024 1024" version="1.1" xmlns="http://www.w3.org/2000/svg" p-id="2483" xmlns:xlink="http://www.w3.org/1999/xlink" width="200" height="200"><path d="M813.1584 470.528A290.816 290.816 0 0 0 258.6112 371.4048a217.5488 217.5488 0 0 0-9.8304 428.1344 149.0944 149.0944 0 0 0 37.0176 4.352h504.4224a167.424 167.424 0 0 0 22.8864-333.3632z m-45.7728 44.6464a26.2656 26.2656 0 0 0 19.6096 7.6288h4.352a113.3056 113.3056 0 0 1 0 226.6112H286.72a114.3808 114.3808 0 0 1-26.1632-3.2768 164.1984 164.1984 0 0 1 19.6096-324.6592 27.3408 27.3408 0 0 0 22.8864-17.408 237.3632 237.3632 0 0 1 458.6496 84.992v3.2768a25.2928 25.2928 0 0 0 5.4272 22.8864z" p-id="2484"></path><path d="M495.0528 650.24a28.3136 28.3136 0 0 1-19.9168-8.192l-83.9168-82.688a28.3648 28.3648 0 1 1 39.8848-40.3968l63.7952 62.976 106.4448-106.4448a28.3648 28.3648 0 1 1 40.1408 40.1408l-126.3616 126.4128a28.3136 28.3136 0 0 1-20.0704 8.192z" p-id="2485"></path></svg>