<?xml version="1.0" standalone="no"?><!DOCTYPE svg PUBLIC "-//W3C//DTD SVG 1.1//EN" "http://www.w3.org/Graphics/SVG/1.1/DTD/svg11.dtd"><svg t="1723017402047" class="icon" viewBox="0 0 1024 1024" version="1.1" xmlns="http://www.w3.org/2000/svg" p-id="2041" xmlns:xlink="http://www.w3.org/1999/xlink" width="200" height="200"><path d="M480 224a32 32 0 0 1 64 0v448a32 32 0 0 1-64 0z" p-id="2042"></path><path d="M800 832V672a32 32 0 0 1 64 0v192a32 32 0 0 1-32 32H192a32 32 0 0 1-32-32V672a32 32 0 0 1 64 0v160z" p-id="2043"></path><path d="M648.32 522.24a32 32 0 1 1 47.36 43.52l-176 192a32 32 0 0 1-47.36 0l-176-192a32 32 0 1 1 47.36-43.52L496 688.64z" p-id="2044"></path></svg>