<?xml version="1.0" standalone="no"?><!DOCTYPE svg PUBLIC "-//W3C//DTD SVG 1.1//EN" "http://www.w3.org/Graphics/SVG/1.1/DTD/svg11.dtd"><svg t="1723029578670" class="icon" viewBox="0 0 1024 1024" version="1.1" xmlns="http://www.w3.org/2000/svg" p-id="2500" xmlns:xlink="http://www.w3.org/1999/xlink" width="200" height="200"><path d="M680.9 468.2c-14.5-25.1-50.7-25.1-65.2 0l-139.2 241c-13.7 23.8-48.1 23.8-61.9 0l-67.8-117.5c-14.5-25.1-50.7-25.1-65.2 0l-98.8 176.6c-6.8 12.1 2 27.1 15.9 27.1h626.8c17.2 0 28.1-18.5 19.7-33.5L680.9 468.2z" fill="#4D4D4D" p-id="2501"></path><path d="M825.6 141.2H198.7C124.4 141.2 64 201.7 64 275.9v474.5c0 71.6 56.2 130.2 126.8 134.3 2.6 0.2 5.3 0.4 7.9 0.4h626.8c26.4 0 51-7.7 71.8-20.9 5.5-3.5 10.8-7.4 15.8-11.6 28.8-24.7 47.1-61.3 47.1-102.2V275.9c0.2-74.2-60.3-134.7-134.6-134.7z m80.9 609.3c0 20.8-8 39.8-21 54.1-6.1 6.7-13.4 12.4-21.4 16.8-11.4 6.3-24.5 9.9-38.4 9.9h-627c-11 0-21.5-2.3-31-6.3-8.4-3.5-16.1-8.4-22.8-14.4-16.5-14.8-27-36.2-27-60.1V275.9c0-44.6 36.3-80.8 80.8-80.8h626.9c44.6 0 80.8 36.3 80.8 80.8v474.6z" fill="#4D4D4D" p-id="2502"></path><path d="M261.3 335.4m-80.8 0a80.8 80.8 0 1 0 161.6 0 80.8 80.8 0 1 0-161.6 0Z" fill="#4D4D4D" p-id="2503"></path></svg>